<svg width="14" height="12" viewBox="0 0 14 12" fill="none" xmlns="http://www.w3.org/2000/svg">
<path fill-rule="evenodd" clip-rule="evenodd" d="M7.33277 0.751021C7.60776 0.442312 8.08149 0.414506 8.39086 0.688914L13.7484 5.44103C13.9085 5.58295 14 5.78638 14 6C14 6.21362 13.9085 6.41704 13.7484 6.55897L8.39086 11.3111C8.08149 11.5855 7.60776 11.5577 7.33277 11.249C7.05777 10.9403 7.08564 10.4676 7.39501 10.1932L11.2793 6.74787H0.749475C0.335551 6.74787 0 6.41304 0 6C0 5.58696 0.335551 5.25213 0.749475 5.25213H11.2793L7.39501 1.80685C7.08564 1.53244 7.05777 1.05973 7.33277 0.751021Z" fill="#201F29"/>
</svg>
